<svg data-v-423bf9ae="" xmlns="http://www.w3.org/2000/svg" viewBox="0 0 296 90" class="iconLeft"><!----><!----><!----><g data-v-423bf9ae="" id="a3c86407-b8db-4c23-b073-6929c139af76" fill="white" transform="matrix(4.576659158754479,0,0,4.576659158754479,103.32370873360945,-1.933640297716579)"><path d="M0.91 13.78L2.55 13.78L2.55 10.70C2.55 9.69 2.38 7.53 2.28 6.55L2.34 6.55L3.07 9.07L3.93 11.31L4.86 11.31L5.71 9.07L6.45 6.55L6.51 6.55C6.41 7.53 6.24 9.69 6.24 10.70L6.24 13.78L7.91 13.78L7.91 4.54L5.84 4.54L4.80 7.83L4.45 9.11L4.41 9.11L4.05 7.83L2.98 4.54L0.91 4.54ZM13.02 13.94C14.85 13.94 16.56 12.59 16.56 10.21C16.56 7.83 14.85 6.45 13.02 6.45C11.19 6.45 9.48 7.83 9.48 10.21C9.48 12.59 11.19 13.94 13.02 13.94ZM13.02 12.28C12.07 12.28 11.59 11.47 11.59 10.21C11.59 8.95 12.07 8.12 13.02 8.12C13.97 8.12 14.45 8.95 14.45 10.21C14.45 11.47 13.97 12.28 13.02 12.28ZM18.23 13.78L20.29 13.78L20.29 9.00C20.78 8.48 21.14 8.20 21.70 8.20C22.46 8.20 22.72 8.65 22.72 9.63L22.72 13.78L24.78 13.78L24.78 9.37C24.78 7.56 24.08 6.45 22.51 6.45C21.48 6.45 20.72 6.99 20.12 7.60L20.06 7.60L19.91 6.64L18.23 6.64ZM31.05 13.94C31.95 13.94 32.70 13.75 33.32 13.55L32.96 12.07C32.55 12.22 32.10 12.33 31.57 12.33C30.56 12.33 30.11 11.90 30.11 10.81L30.11 8.25L33.05 8.25L33.05 6.64L30.11 6.64L30.11 3.70L28.15 4.54L28.15 6.64L26.31 6.64L26.31 8.25L28.06 8.25L28.06 10.82C28.06 12.68 28.84 13.94 31.05 13.94ZM36.02 16.81C37.77 16.81 38.60 15.89 39.26 14.11L42.01 6.64L40.07 6.64L39.05 9.76C38.82 10.46 38.60 11.20 38.42 11.90L38.36 11.90C38.14 11.16 37.91 10.43 37.66 9.76L36.50 6.64L34.45 6.64L37.46 13.61L37.24 14.18C37.10 14.53 36.67 15.19 35.87 15.19C35.69 15.19 35.50 15.16 35.32 15.11L34.96 16.67C35.25 16.76 35.62 16.81 36.02 16.81Z"></path></g><!----><g data-v-423bf9ae="" id="6f77de91-d804-4875-8b69-9282d1f0dd82" transform="matrix(1.875022501023424,0,0,1.875022501023424,-0.3298694761705221,1.0001032789715083)" stroke="none" fill="white"><path d="M23.998 12.064c-6.581 0-11.935 5.354-11.935 11.936s5.354 11.936 11.935 11.936c6.583 0 11.938-5.354 11.938-11.936s-5.355-11.936-11.938-11.936zm.606 18.32v2.166h-1.313v-2.103c-1.207-.022-2.459-.396-3.186-.918l.498-1.394a5.565 5.565 0 003.001.896c1.479 0 2.478-.856 2.478-2.042 0-1.145-.812-1.854-2.353-2.479-2.126-.833-3.438-1.792-3.438-3.603 0-1.73 1.23-3.041 3.146-3.354V15.45h1.292v2.02c1.248.042 2.103.375 2.707.729l-.521 1.375a5.028 5.028 0 00-2.625-.709c-1.604 0-2.207.959-2.207 1.79 0 1.086.77 1.626 2.583 2.377 2.145.874 3.228 1.957 3.228 3.811.001 1.646-1.145 3.186-3.29 3.541z"></path><path d="M20.039 37.936h-4.935v-3.188c-3.09-2.563-5.063-6.429-5.063-10.747 0-3.745 1.49-7.143 3.9-9.652H6.106a.253.253 0 00-.253.253v23.335H.922a.253.253 0 00-.234.155.253.253 0 00.056.275l9.559 9.56a.254.254 0 00.356-.001l9.559-9.56a.252.252 0 00-.179-.43zM47.257 9.634l-9.56-9.56a.252.252 0 00-.357 0l-9.56 9.56a.252.252 0 00.178.43h4.935v3.188c3.092 2.563 5.064 6.429 5.064 10.747 0 3.745-1.491 7.143-3.901 9.652h7.837a.253.253 0 00.253-.253V10.064h4.932a.253.253 0 00.179-.43z"></path></g><!----></svg>